<?xml version="1.0" encoding="UTF-8"?>
<svg id="_レイヤー_2" data-name="レイヤー 2" xmlns="http://www.w3.org/2000/svg" viewBox="0 0 400.71 380.5">
  <defs>
    <style>
      .cls-1 {
        fill: none;
        stroke: #040000;
        stroke-miterlimit: 10;
      }

      .cls-2 {
        fill: #fff;
        stroke-width: 0px;
      }
    </style>
  </defs>
  <polygon class="cls-2" points="157.2 112.91 47.59 334.36 102.4 334.36 157.2 223.64 212.02 334.36 266.82 334.36 157.2 112.91"/>
  <polygon class="cls-2" points="188.69 113.83 243.5 113.83 353.12 335.28 298.32 335.28 188.69 113.83"/>
  <polygon class="cls-2" points="69.25 45.16 69.25 50.85 95.96 50.85 95.96 108.32 101.66 108.32 101.66 50.85 128.37 50.85 128.37 45.16 69.25 45.16"/>
  <polygon class="cls-2" points="134.25 45.16 134.25 108.32 190.07 108.32 190.07 102.63 139.94 102.63 139.94 79.58 182.92 79.58 182.92 73.9 139.94 73.9 139.94 50.85 190.07 50.85 190.07 45.16 134.25 45.16"/>
  <path class="cls-2" d="m229.92,46.45h-5.5l-30.12,61.88h6.06l7.52-15.25h38.58l7.52,15.25h6.05l-30.11-61.88Zm-19.32,41.12l16.57-33.6,16.57,33.6h-33.15Z"/>
  <polygon class="cls-2" points="264.26 46.45 264.26 108.32 269.76 108.32 269.76 57.09 293.08 111.26 300.43 111.26 323.74 57.09 323.74 108.32 329.25 108.32 329.25 46.45 321.36 46.45 296.75 102.45 272.15 46.45 264.26 46.45"/>
  <g>
    <path class="cls-1" d="m194.5,296.05c0,20.6-16.69,37.3-37.29,37.3s-37.3-16.7-37.3-37.3,16.7-37.3,37.3-37.3,37.29,16.7,37.29,37.3Z"/>
    <g>
      <path class="cls-2" d="m196.34,296.05c0,21.16-17.52,38.31-39.13,38.31s-39.13-17.15-39.13-38.31,17.52-38.29,39.13-38.29,39.13,17.14,39.13,38.29m-39.13-35.61c-20.09,0-36.39,15.94-36.39,35.61s16.29,35.62,36.39,35.62,36.38-15.95,36.38-35.62-16.29-35.61-36.38-35.61"/>
      <path class="cls-2" d="m158.31,297h38.01c0-.32.03-.64.03-.95s-.02-.63-.03-.95h-38.01v1.9Z"/>
      <path class="cls-2" d="m156.11,295.11h-38c-.01.31-.03.63-.03.95s.02.63.03.95h38v-1.9Z"/>
      <polygon class="cls-2" points="156.11 278.48 156.11 282.53 157.21 282.53 158.31 282.53 158.31 278.48 157.21 278.48 156.11 278.48"/>
      <polygon class="cls-2" points="156.11 266.84 156.11 276.59 157.21 276.59 158.31 276.59 158.31 266.84 157.21 266.84 156.11 266.84"/>
      <path class="cls-2" d="m157.21,264.94h1.1v-7.17c-.37,0-.73-.02-1.1-.02s-.73.02-1.1.02v7.17h1.1Z"/>
      <polygon class="cls-2" points="156.11 302.54 156.11 324.94 157.21 324.94 158.31 324.94 158.31 302.54 157.21 302.54 156.11 302.54"/>
      <polygon class="cls-2" points="156.11 300.64 157.21 300.64 158.31 300.64 158.31 297 156.11 297 156.11 300.64"/>
      <path class="cls-2" d="m157.21,326.84h-1.1v7.49c.37.01.73.03,1.1.03s.73-.02,1.1-.03v-7.49h-1.1Z"/>
      <polygon class="cls-2" points="156.11 284.42 156.11 295.11 158.31 295.11 158.31 284.42 157.21 284.42 156.11 284.42"/>
      <rect class="cls-2" x="156.11" y="295.1" width="2.2" height="1.9"/>
      <path class="cls-2" d="m137.94,276.59h-14.43c-.38.62-.74,1.25-1.07,1.89h13.3v10h-16.89c-.13.63-.24,1.26-.34,1.89h19.43v-13.78Z"/>
      <path class="cls-2" d="m130.53,282.53h-9.94c-.24.62-.47,1.25-.68,1.89h10.61v-1.89Z"/>
      <path class="cls-2" d="m136.83,270.05h-8.35c-.58.62-1.14,1.25-1.68,1.9h10.03v-1.9Z"/>
      <path class="cls-2" d="m150.09,271.94v-1.9h-6.65v-9.85c-.75.27-1.47.58-2.2.89v10.86h8.85Z"/>
      <rect class="cls-2" x="147.99" y="264.94" width="8.12" height="1.9"/>
      <rect class="cls-2" x="156.11" y="264.94" width="1.1" height="1.9"/>
      <polygon class="cls-2" points="141.24 276.59 141.24 290.37 151.03 290.37 151.03 288.48 143.44 288.48 143.44 278.48 156.11 278.48 156.11 276.59 141.24 276.59"/>
      <rect class="cls-2" x="156.11" y="276.59" width="1.1" height="1.89"/>
      <rect class="cls-2" x="147.99" y="282.53" width="8.12" height="1.89"/>
      <rect class="cls-2" x="156.11" y="282.53" width="1.1" height="1.89"/>
      <path class="cls-2" d="m176.48,290.37h19.43c-.1-.64-.21-1.27-.34-1.89h-16.89v-10h13.29c-.34-.64-.69-1.28-1.07-1.89h-14.42v13.78Z"/>
      <path class="cls-2" d="m183.89,284.42h10.61c-.2-.64-.43-1.27-.68-1.89h-9.93v1.89Z"/>
      <path class="cls-2" d="m177.58,271.94h10.04c-.54-.65-1.1-1.28-1.69-1.9h-8.35v1.9Z"/>
      <path class="cls-2" d="m164.32,270.05v1.9h8.85v-10.86c-.73-.31-1.46-.62-2.2-.89v9.85h-6.65Z"/>
      <rect class="cls-2" x="158.31" y="264.94" width="8.12" height="1.9"/>
      <rect class="cls-2" x="157.21" y="264.94" width="1.1" height="1.9"/>
      <polygon class="cls-2" points="170.97 278.48 170.97 288.48 163.39 288.48 163.39 290.37 173.18 290.37 173.18 276.59 158.31 276.59 158.31 278.48 170.97 278.48"/>
      <rect class="cls-2" x="157.21" y="276.59" width="1.1" height="1.89"/>
      <rect class="cls-2" x="158.31" y="282.53" width="8.12" height="1.89"/>
      <rect class="cls-2" x="157.21" y="282.53" width="1.1" height="1.89"/>
      <path class="cls-2" d="m136.7,306.26h-4.71v1.9h6.92v-7.52h-20.54c.08.64.17,1.27.29,1.9h18.05v3.72Z"/>
      <path class="cls-2" d="m146.03,302.54h10.08v-1.89h-12.29v11.71h-22.03c.3.64.63,1.28.98,1.9h23.25v-11.71Z"/>
      <rect class="cls-2" x="156.11" y="300.64" width="1.1" height="1.9"/>
      <path class="cls-2" d="m134.6,319v8.3c.71.51,1.45.98,2.2,1.44v-9.74h-2.2Z"/>
      <path class="cls-2" d="m151.19,320.43v-12.98h-2.2v11.08h-7.75v12.49c.73.31,1.45.61,2.2.89v-11.48h7.75Z"/>
      <rect class="cls-2" x="147.99" y="324.94" width="8.12" height="1.9"/>
      <rect class="cls-2" x="156.11" y="324.94" width="1.1" height="1.9"/>
      <path class="cls-2" d="m175.51,308.16h6.92v-1.9h-4.71v-3.72h18.05c.11-.63.2-1.26.28-1.9h-20.54v7.52Z"/>
      <path class="cls-2" d="m170.6,300.64h-12.29v1.9h10.09v11.71h23.25c.34-.63.67-1.26.98-1.9h-22.02v-11.71Z"/>
      <rect class="cls-2" x="157.21" y="300.64" width="1.1" height="1.9"/>
      <path class="cls-2" d="m177.61,319v9.74c.76-.46,1.48-.94,2.21-1.44v-8.3h-2.21Z"/>
      <path class="cls-2" d="m165.42,318.53v-11.07h-2.2v12.98h7.75v11.48c.75-.28,1.48-.57,2.2-.89v-12.49h-7.76Z"/>
      <rect class="cls-2" x="158.31" y="324.94" width="8.12" height="1.9"/>
      <rect class="cls-2" x="157.21" y="324.94" width="1.1" height="1.9"/>
    </g>
  </g>
</svg>