<?xml version="1.0" encoding="UTF-8"?>
<svg id="_写真撮影" data-name="写真撮影" xmlns="http://www.w3.org/2000/svg" viewBox="0 0 100 100">
  <defs>
    <style>
      .cls-1 {
        stroke-linecap: round;
      }

      .cls-1, .cls-2 {
        fill: none;
        stroke: #fff;
        stroke-miterlimit: 10;
        stroke-width: 3px;
      }

      .cls-3 {
        fill: #fff;
        stroke-width: 0px;
      }
    </style>
  </defs>
  <path class="cls-3" d="m17.28,26.4v-3.87c0-1.99,1.61-3.59,3.59-3.59h0c1.99,0,3.59,1.61,3.59,3.59v3.87h-7.19Z"/>
  <path class="cls-1" d="m39.2,82.6h47.06c2.81,0,5.09-2.28,5.09-5.09V30.6c0-2.81-2.28-5.09-5.09-5.09h-12.56c-1.67,0-3.02-1.35-3.02-3.02h0c0-2.81-2.28-5.09-5.09-5.09h-31.21c-2.81,0-5.09,2.28-5.09,5.09h0c0,1.67-1.35,3.02-3.02,3.02h-12.49c-2.81,0-5.09,2.28-5.09,5.09v46.9c0,2.81,2.28,5.09,5.09,5.09h5.41"/>
  <circle class="cls-2" cx="50.03" cy="54.05" r="17.01"/>
  <circle class="cls-3" cx="50.03" cy="54.05" r="9.35"/>
  <circle class="cls-3" cx="81.99" cy="34.31" r="2.73"/>
</svg>